<mxfile host="app.diagrams.net" agent="Mozilla/5.0 (Windows NT 10.0; Win64; x64) AppleWebKit/537.36 (KHTML, like Gecko) Chrome/133.0.0.0 Safari/537.36" version="24.8.4">
  <diagram name="PÃ¡gina-1" id="FoI6rMHIPFCnv4NWrZlX">
    <mxGraphModel dx="3033" dy="2357" grid="1" gridSize="10" guides="1" tooltips="1" connect="1" arrows="1" fold="1" page="1" pageScale="1" pageWidth="827" pageHeight="1169" math="0" shadow="0">
      <root>
        <mxCell id="0" />
        <mxCell id="1" parent="0" />
        <mxCell id="8KkNLTuFki5gpUxNbEMF-7" value="" style="edgeStyle=orthogonalEdgeStyle;rounded=0;orthogonalLoop=1;jettySize=auto;html=1;endArrow=none;endFill=0;" edge="1" parent="1" source="8KkNLTuFki5gpUxNbEMF-2" target="8KkNLTuFki5gpUxNbEMF-5">
          <mxGeometry relative="1" as="geometry" />
        </mxCell>
        <mxCell id="8KkNLTuFki5gpUxNbEMF-73" value="1,1" style="edgeLabel;html=1;align=center;verticalAlign=middle;resizable=0;points=[];fontFamily=Helvetica;fontSize=11;fontColor=default;labelBackgroundColor=default;" vertex="1" connectable="0" parent="8KkNLTuFki5gpUxNbEMF-7">
          <mxGeometry x="-0.4825" y="2" relative="1" as="geometry">
            <mxPoint as="offset" />
          </mxGeometry>
        </mxCell>
        <mxCell id="8KkNLTuFki5gpUxNbEMF-12" style="edgeStyle=orthogonalEdgeStyle;shape=connector;rounded=0;orthogonalLoop=1;jettySize=auto;html=1;entryX=0;entryY=0.5;entryDx=0;entryDy=0;strokeColor=default;align=center;verticalAlign=middle;fontFamily=Helvetica;fontSize=11;fontColor=default;labelBackgroundColor=default;endArrow=none;endFill=0;" edge="1" parent="1" source="8KkNLTuFki5gpUxNbEMF-2" target="8KkNLTuFki5gpUxNbEMF-11">
          <mxGeometry relative="1" as="geometry" />
        </mxCell>
        <mxCell id="8KkNLTuFki5gpUxNbEMF-75" value="1,1" style="edgeLabel;html=1;align=center;verticalAlign=middle;resizable=0;points=[];fontFamily=Helvetica;fontSize=11;fontColor=default;labelBackgroundColor=default;" vertex="1" connectable="0" parent="8KkNLTuFki5gpUxNbEMF-12">
          <mxGeometry x="-0.4408" y="-2" relative="1" as="geometry">
            <mxPoint as="offset" />
          </mxGeometry>
        </mxCell>
        <mxCell id="8KkNLTuFki5gpUxNbEMF-51" style="edgeStyle=orthogonalEdgeStyle;shape=connector;rounded=0;orthogonalLoop=1;jettySize=auto;html=1;exitX=0.75;exitY=0;exitDx=0;exitDy=0;entryX=0;entryY=0.5;entryDx=0;entryDy=0;strokeColor=default;align=center;verticalAlign=middle;fontFamily=Helvetica;fontSize=11;fontColor=default;labelBackgroundColor=default;endArrow=none;endFill=0;" edge="1" parent="1" source="8KkNLTuFki5gpUxNbEMF-2" target="8KkNLTuFki5gpUxNbEMF-50">
          <mxGeometry relative="1" as="geometry" />
        </mxCell>
        <mxCell id="8KkNLTuFki5gpUxNbEMF-109" value="1,1" style="edgeLabel;html=1;align=center;verticalAlign=middle;resizable=0;points=[];fontFamily=Helvetica;fontSize=11;fontColor=default;labelBackgroundColor=default;" vertex="1" connectable="0" parent="8KkNLTuFki5gpUxNbEMF-51">
          <mxGeometry x="-0.7667" relative="1" as="geometry">
            <mxPoint as="offset" />
          </mxGeometry>
        </mxCell>
        <mxCell id="8KkNLTuFki5gpUxNbEMF-122" style="edgeStyle=orthogonalEdgeStyle;shape=connector;rounded=0;orthogonalLoop=1;jettySize=auto;html=1;exitX=0;exitY=1;exitDx=0;exitDy=0;entryX=1;entryY=0.5;entryDx=0;entryDy=0;strokeColor=default;align=center;verticalAlign=middle;fontFamily=Helvetica;fontSize=11;fontColor=default;labelBackgroundColor=default;endArrow=none;endFill=0;" edge="1" parent="1" source="8KkNLTuFki5gpUxNbEMF-2" target="8KkNLTuFki5gpUxNbEMF-121">
          <mxGeometry relative="1" as="geometry" />
        </mxCell>
        <mxCell id="8KkNLTuFki5gpUxNbEMF-2" value="users" style="rounded=0;whiteSpace=wrap;html=1;" vertex="1" parent="1">
          <mxGeometry x="370" y="500" width="120" height="60" as="geometry" />
        </mxCell>
        <mxCell id="8KkNLTuFki5gpUxNbEMF-207" style="edgeStyle=orthogonalEdgeStyle;shape=connector;rounded=0;orthogonalLoop=1;jettySize=auto;html=1;exitX=0;exitY=1;exitDx=0;exitDy=0;entryX=1;entryY=0;entryDx=0;entryDy=0;strokeColor=default;align=center;verticalAlign=middle;fontFamily=Helvetica;fontSize=11;fontColor=default;labelBackgroundColor=default;endArrow=none;endFill=0;" edge="1" parent="1" source="8KkNLTuFki5gpUxNbEMF-3" target="8KkNLTuFki5gpUxNbEMF-205">
          <mxGeometry relative="1" as="geometry" />
        </mxCell>
        <mxCell id="8KkNLTuFki5gpUxNbEMF-208" style="edgeStyle=orthogonalEdgeStyle;shape=connector;rounded=0;orthogonalLoop=1;jettySize=auto;html=1;exitX=0;exitY=0.5;exitDx=0;exitDy=0;entryX=1;entryY=0.5;entryDx=0;entryDy=0;strokeColor=default;align=center;verticalAlign=middle;fontFamily=Helvetica;fontSize=11;fontColor=default;labelBackgroundColor=default;endArrow=none;endFill=0;" edge="1" parent="1" source="8KkNLTuFki5gpUxNbEMF-3" target="8KkNLTuFki5gpUxNbEMF-204">
          <mxGeometry relative="1" as="geometry" />
        </mxCell>
        <mxCell id="8KkNLTuFki5gpUxNbEMF-209" style="edgeStyle=orthogonalEdgeStyle;shape=connector;rounded=0;orthogonalLoop=1;jettySize=auto;html=1;exitX=0;exitY=0;exitDx=0;exitDy=0;entryX=1;entryY=1;entryDx=0;entryDy=0;strokeColor=default;align=center;verticalAlign=middle;fontFamily=Helvetica;fontSize=11;fontColor=default;labelBackgroundColor=default;endArrow=none;endFill=0;" edge="1" parent="1" source="8KkNLTuFki5gpUxNbEMF-3" target="8KkNLTuFki5gpUxNbEMF-203">
          <mxGeometry relative="1" as="geometry" />
        </mxCell>
        <mxCell id="8KkNLTuFki5gpUxNbEMF-3" value="users_tokens" style="rounded=0;whiteSpace=wrap;html=1;" vertex="1" parent="1">
          <mxGeometry y="500" width="120" height="60" as="geometry" />
        </mxCell>
        <mxCell id="8KkNLTuFki5gpUxNbEMF-8" value="" style="edgeStyle=orthogonalEdgeStyle;shape=connector;rounded=0;orthogonalLoop=1;jettySize=auto;html=1;strokeColor=default;align=center;verticalAlign=middle;fontFamily=Helvetica;fontSize=11;fontColor=default;labelBackgroundColor=default;endArrow=none;endFill=0;" edge="1" parent="1" source="8KkNLTuFki5gpUxNbEMF-5" target="8KkNLTuFki5gpUxNbEMF-3">
          <mxGeometry relative="1" as="geometry" />
        </mxCell>
        <mxCell id="8KkNLTuFki5gpUxNbEMF-74" value="0,N" style="edgeLabel;html=1;align=center;verticalAlign=middle;resizable=0;points=[];fontFamily=Helvetica;fontSize=11;fontColor=default;labelBackgroundColor=default;" vertex="1" connectable="0" parent="8KkNLTuFki5gpUxNbEMF-8">
          <mxGeometry x="0.7036" y="2" relative="1" as="geometry">
            <mxPoint as="offset" />
          </mxGeometry>
        </mxCell>
        <mxCell id="8KkNLTuFki5gpUxNbEMF-5" value="Se autentica con" style="rhombus;whiteSpace=wrap;html=1;fillColor=#f5f5f5;fontColor=#333333;strokeColor=#666666;" vertex="1" parent="1">
          <mxGeometry x="200" y="490" width="80" height="80" as="geometry" />
        </mxCell>
        <mxCell id="8KkNLTuFki5gpUxNbEMF-18" value="" style="edgeStyle=orthogonalEdgeStyle;shape=connector;rounded=0;orthogonalLoop=1;jettySize=auto;html=1;strokeColor=default;align=center;verticalAlign=middle;fontFamily=Helvetica;fontSize=11;fontColor=default;labelBackgroundColor=default;endArrow=none;endFill=0;" edge="1" parent="1" source="8KkNLTuFki5gpUxNbEMF-9" target="8KkNLTuFki5gpUxNbEMF-17">
          <mxGeometry relative="1" as="geometry" />
        </mxCell>
        <mxCell id="8KkNLTuFki5gpUxNbEMF-77" value="0,N" style="edgeLabel;html=1;align=center;verticalAlign=middle;resizable=0;points=[];fontFamily=Helvetica;fontSize=11;fontColor=default;labelBackgroundColor=default;" vertex="1" connectable="0" parent="8KkNLTuFki5gpUxNbEMF-18">
          <mxGeometry x="-0.7184" y="2" relative="1" as="geometry">
            <mxPoint x="-10" y="-2" as="offset" />
          </mxGeometry>
        </mxCell>
        <mxCell id="8KkNLTuFki5gpUxNbEMF-39" value="" style="edgeStyle=orthogonalEdgeStyle;shape=connector;rounded=0;orthogonalLoop=1;jettySize=auto;html=1;strokeColor=default;align=center;verticalAlign=middle;fontFamily=Helvetica;fontSize=11;fontColor=default;labelBackgroundColor=default;endArrow=none;endFill=0;" edge="1" parent="1" source="8KkNLTuFki5gpUxNbEMF-9" target="8KkNLTuFki5gpUxNbEMF-38">
          <mxGeometry relative="1" as="geometry" />
        </mxCell>
        <mxCell id="8KkNLTuFki5gpUxNbEMF-80" value="1,1" style="edgeLabel;html=1;align=center;verticalAlign=middle;resizable=0;points=[];fontFamily=Helvetica;fontSize=11;fontColor=default;labelBackgroundColor=default;" vertex="1" connectable="0" parent="8KkNLTuFki5gpUxNbEMF-39">
          <mxGeometry x="-0.6223" y="-2" relative="1" as="geometry">
            <mxPoint as="offset" />
          </mxGeometry>
        </mxCell>
        <mxCell id="8KkNLTuFki5gpUxNbEMF-94" style="edgeStyle=orthogonalEdgeStyle;shape=connector;rounded=0;orthogonalLoop=1;jettySize=auto;html=1;exitX=0.75;exitY=0;exitDx=0;exitDy=0;entryX=0.5;entryY=1;entryDx=0;entryDy=0;strokeColor=default;align=center;verticalAlign=middle;fontFamily=Helvetica;fontSize=11;fontColor=default;labelBackgroundColor=default;endArrow=none;endFill=0;" edge="1" parent="1" source="8KkNLTuFki5gpUxNbEMF-9" target="8KkNLTuFki5gpUxNbEMF-93">
          <mxGeometry relative="1" as="geometry" />
        </mxCell>
        <mxCell id="8KkNLTuFki5gpUxNbEMF-97" value="0,N" style="edgeLabel;html=1;align=center;verticalAlign=middle;resizable=0;points=[];fontFamily=Helvetica;fontSize=11;fontColor=default;labelBackgroundColor=default;" vertex="1" connectable="0" parent="8KkNLTuFki5gpUxNbEMF-94">
          <mxGeometry x="-0.8447" y="-2" relative="1" as="geometry">
            <mxPoint as="offset" />
          </mxGeometry>
        </mxCell>
        <mxCell id="8KkNLTuFki5gpUxNbEMF-129" style="edgeStyle=orthogonalEdgeStyle;shape=connector;rounded=0;orthogonalLoop=1;jettySize=auto;html=1;exitX=0;exitY=1;exitDx=0;exitDy=0;entryX=1;entryY=0;entryDx=0;entryDy=0;strokeColor=default;align=center;verticalAlign=middle;fontFamily=Helvetica;fontSize=11;fontColor=default;labelBackgroundColor=default;endArrow=none;endFill=0;" edge="1" parent="1" source="8KkNLTuFki5gpUxNbEMF-9" target="8KkNLTuFki5gpUxNbEMF-125">
          <mxGeometry relative="1" as="geometry" />
        </mxCell>
        <mxCell id="8KkNLTuFki5gpUxNbEMF-131" style="edgeStyle=orthogonalEdgeStyle;shape=connector;rounded=0;orthogonalLoop=1;jettySize=auto;html=1;exitX=0.75;exitY=1;exitDx=0;exitDy=0;entryX=0.5;entryY=0;entryDx=0;entryDy=0;strokeColor=default;align=center;verticalAlign=middle;fontFamily=Helvetica;fontSize=11;fontColor=default;labelBackgroundColor=default;endArrow=none;endFill=0;" edge="1" parent="1" source="8KkNLTuFki5gpUxNbEMF-9" target="8KkNLTuFki5gpUxNbEMF-127">
          <mxGeometry relative="1" as="geometry" />
        </mxCell>
        <mxCell id="8KkNLTuFki5gpUxNbEMF-132" style="edgeStyle=orthogonalEdgeStyle;shape=connector;rounded=0;orthogonalLoop=1;jettySize=auto;html=1;exitX=1;exitY=1;exitDx=0;exitDy=0;entryX=0;entryY=0;entryDx=0;entryDy=0;strokeColor=default;align=center;verticalAlign=middle;fontFamily=Helvetica;fontSize=11;fontColor=default;labelBackgroundColor=default;endArrow=none;endFill=0;" edge="1" parent="1" source="8KkNLTuFki5gpUxNbEMF-9">
          <mxGeometry relative="1" as="geometry">
            <mxPoint x="681.4722622845195" y="757.4758182604905" as="targetPoint" />
            <Array as="points">
              <mxPoint x="660" y="750" />
              <mxPoint x="682" y="750" />
            </Array>
          </mxGeometry>
        </mxCell>
        <mxCell id="8KkNLTuFki5gpUxNbEMF-9" value="proyects" style="rounded=0;whiteSpace=wrap;html=1;" vertex="1" parent="1">
          <mxGeometry x="540" y="670" width="120" height="60" as="geometry" />
        </mxCell>
        <mxCell id="8KkNLTuFki5gpUxNbEMF-16" value="" style="edgeStyle=orthogonalEdgeStyle;shape=connector;rounded=0;orthogonalLoop=1;jettySize=auto;html=1;strokeColor=default;align=center;verticalAlign=middle;fontFamily=Helvetica;fontSize=11;fontColor=default;labelBackgroundColor=default;endArrow=none;endFill=0;" edge="1" parent="1" source="8KkNLTuFki5gpUxNbEMF-11" target="8KkNLTuFki5gpUxNbEMF-9">
          <mxGeometry relative="1" as="geometry" />
        </mxCell>
        <mxCell id="8KkNLTuFki5gpUxNbEMF-76" value="0,N" style="edgeLabel;html=1;align=center;verticalAlign=middle;resizable=0;points=[];fontFamily=Helvetica;fontSize=11;fontColor=default;labelBackgroundColor=default;" vertex="1" connectable="0" parent="8KkNLTuFki5gpUxNbEMF-16">
          <mxGeometry x="0.7" relative="1" as="geometry">
            <mxPoint as="offset" />
          </mxGeometry>
        </mxCell>
        <mxCell id="8KkNLTuFki5gpUxNbEMF-11" value="Crea" style="rhombus;whiteSpace=wrap;html=1;fontFamily=Helvetica;fontSize=11;fontColor=#333333;labelBackgroundColor=default;fillColor=#f5f5f5;strokeColor=#666666;" vertex="1" parent="1">
          <mxGeometry x="560" y="490" width="80" height="80" as="geometry" />
        </mxCell>
        <mxCell id="8KkNLTuFki5gpUxNbEMF-19" value="" style="edgeStyle=orthogonalEdgeStyle;shape=connector;rounded=0;orthogonalLoop=1;jettySize=auto;html=1;strokeColor=default;align=center;verticalAlign=middle;fontFamily=Helvetica;fontSize=11;fontColor=default;labelBackgroundColor=default;endArrow=none;endFill=0;" edge="1" parent="1" source="8KkNLTuFki5gpUxNbEMF-17" target="8KkNLTuFki5gpUxNbEMF-2">
          <mxGeometry relative="1" as="geometry" />
        </mxCell>
        <mxCell id="8KkNLTuFki5gpUxNbEMF-78" value="0,N" style="edgeLabel;html=1;align=center;verticalAlign=middle;resizable=0;points=[];fontFamily=Helvetica;fontSize=11;fontColor=default;labelBackgroundColor=default;" vertex="1" connectable="0" parent="8KkNLTuFki5gpUxNbEMF-19">
          <mxGeometry x="0.8029" relative="1" as="geometry">
            <mxPoint as="offset" />
          </mxGeometry>
        </mxCell>
        <mxCell id="8KkNLTuFki5gpUxNbEMF-17" value="tiene miembros" style="rhombus;whiteSpace=wrap;html=1;fontFamily=Helvetica;fontSize=11;fontColor=#333333;labelBackgroundColor=default;fillColor=#f5f5f5;strokeColor=#666666;" vertex="1" parent="1">
          <mxGeometry x="390" y="660" width="80" height="80" as="geometry" />
        </mxCell>
        <mxCell id="8KkNLTuFki5gpUxNbEMF-35" style="edgeStyle=orthogonalEdgeStyle;shape=connector;rounded=0;orthogonalLoop=1;jettySize=auto;html=1;entryX=1;entryY=0.5;entryDx=0;entryDy=0;strokeColor=default;align=center;verticalAlign=middle;fontFamily=Helvetica;fontSize=11;fontColor=default;labelBackgroundColor=default;endArrow=none;endFill=0;" edge="1" parent="1" source="8KkNLTuFki5gpUxNbEMF-29" target="8KkNLTuFki5gpUxNbEMF-34">
          <mxGeometry relative="1" as="geometry" />
        </mxCell>
        <mxCell id="8KkNLTuFki5gpUxNbEMF-98" value="0,N" style="edgeLabel;html=1;align=center;verticalAlign=middle;resizable=0;points=[];fontFamily=Helvetica;fontSize=11;fontColor=default;labelBackgroundColor=default;" vertex="1" connectable="0" parent="8KkNLTuFki5gpUxNbEMF-35">
          <mxGeometry x="-0.831" y="-4" relative="1" as="geometry">
            <mxPoint as="offset" />
          </mxGeometry>
        </mxCell>
        <mxCell id="8KkNLTuFki5gpUxNbEMF-47" style="edgeStyle=orthogonalEdgeStyle;shape=connector;rounded=0;orthogonalLoop=1;jettySize=auto;html=1;entryX=0.5;entryY=1;entryDx=0;entryDy=0;strokeColor=default;align=center;verticalAlign=middle;fontFamily=Helvetica;fontSize=11;fontColor=default;labelBackgroundColor=default;endArrow=none;endFill=0;exitX=0.25;exitY=0;exitDx=0;exitDy=0;" edge="1" parent="1" source="8KkNLTuFki5gpUxNbEMF-29" target="8KkNLTuFki5gpUxNbEMF-46">
          <mxGeometry relative="1" as="geometry">
            <Array as="points">
              <mxPoint x="740" y="260" />
              <mxPoint x="740" y="200" />
              <mxPoint x="700" y="200" />
            </Array>
          </mxGeometry>
        </mxCell>
        <mxCell id="8KkNLTuFki5gpUxNbEMF-106" value="1,1" style="edgeLabel;html=1;align=center;verticalAlign=middle;resizable=0;points=[];fontFamily=Helvetica;fontSize=11;fontColor=default;labelBackgroundColor=default;" vertex="1" connectable="0" parent="8KkNLTuFki5gpUxNbEMF-47">
          <mxGeometry x="-0.7093" y="2" relative="1" as="geometry">
            <mxPoint as="offset" />
          </mxGeometry>
        </mxCell>
        <mxCell id="8KkNLTuFki5gpUxNbEMF-55" style="edgeStyle=orthogonalEdgeStyle;shape=connector;rounded=0;orthogonalLoop=1;jettySize=auto;html=1;exitX=0.75;exitY=0;exitDx=0;exitDy=0;entryX=0.5;entryY=1;entryDx=0;entryDy=0;strokeColor=default;align=center;verticalAlign=middle;fontFamily=Helvetica;fontSize=11;fontColor=default;labelBackgroundColor=default;endArrow=none;endFill=0;" edge="1" parent="1" source="8KkNLTuFki5gpUxNbEMF-29" target="8KkNLTuFki5gpUxNbEMF-54">
          <mxGeometry relative="1" as="geometry">
            <Array as="points">
              <mxPoint x="797" y="200" />
              <mxPoint x="840" y="200" />
            </Array>
          </mxGeometry>
        </mxCell>
        <mxCell id="8KkNLTuFki5gpUxNbEMF-105" value="1,1" style="edgeLabel;html=1;align=center;verticalAlign=middle;resizable=0;points=[];fontFamily=Helvetica;fontSize=11;fontColor=default;labelBackgroundColor=default;" vertex="1" connectable="0" parent="8KkNLTuFki5gpUxNbEMF-55">
          <mxGeometry x="-0.7794" relative="1" as="geometry">
            <mxPoint as="offset" />
          </mxGeometry>
        </mxCell>
        <mxCell id="8KkNLTuFki5gpUxNbEMF-58" style="edgeStyle=orthogonalEdgeStyle;shape=connector;rounded=0;orthogonalLoop=1;jettySize=auto;html=1;entryX=0;entryY=0.5;entryDx=0;entryDy=0;strokeColor=default;align=center;verticalAlign=middle;fontFamily=Helvetica;fontSize=11;fontColor=default;labelBackgroundColor=default;endArrow=none;endFill=0;exitX=1;exitY=0.5;exitDx=0;exitDy=0;" edge="1" parent="1" source="8KkNLTuFki5gpUxNbEMF-29" target="8KkNLTuFki5gpUxNbEMF-57">
          <mxGeometry relative="1" as="geometry">
            <mxPoint x="830" y="290" as="sourcePoint" />
          </mxGeometry>
        </mxCell>
        <mxCell id="8KkNLTuFki5gpUxNbEMF-110" value="0,N" style="edgeLabel;html=1;align=center;verticalAlign=middle;resizable=0;points=[];fontFamily=Helvetica;fontSize=11;fontColor=default;labelBackgroundColor=default;" vertex="1" connectable="0" parent="8KkNLTuFki5gpUxNbEMF-58">
          <mxGeometry x="-0.7029" y="-2" relative="1" as="geometry">
            <mxPoint as="offset" />
          </mxGeometry>
        </mxCell>
        <mxCell id="8KkNLTuFki5gpUxNbEMF-187" style="edgeStyle=orthogonalEdgeStyle;shape=connector;rounded=0;orthogonalLoop=1;jettySize=auto;html=1;exitX=1;exitY=0.75;exitDx=0;exitDy=0;entryX=0;entryY=0.5;entryDx=0;entryDy=0;strokeColor=default;align=center;verticalAlign=middle;fontFamily=Helvetica;fontSize=11;fontColor=default;labelBackgroundColor=default;endArrow=none;endFill=0;" edge="1" parent="1" source="8KkNLTuFki5gpUxNbEMF-29" target="8KkNLTuFki5gpUxNbEMF-176">
          <mxGeometry relative="1" as="geometry" />
        </mxCell>
        <mxCell id="8KkNLTuFki5gpUxNbEMF-29" value="tasks" style="rounded=0;whiteSpace=wrap;html=1;" vertex="1" parent="1">
          <mxGeometry x="707" y="260" width="120" height="60" as="geometry" />
        </mxCell>
        <mxCell id="8KkNLTuFki5gpUxNbEMF-36" value="" style="edgeStyle=orthogonalEdgeStyle;shape=connector;rounded=0;orthogonalLoop=1;jettySize=auto;html=1;strokeColor=default;align=center;verticalAlign=middle;fontFamily=Helvetica;fontSize=11;fontColor=default;labelBackgroundColor=default;endArrow=none;endFill=0;" edge="1" parent="1" source="8KkNLTuFki5gpUxNbEMF-34" target="8KkNLTuFki5gpUxNbEMF-2">
          <mxGeometry relative="1" as="geometry">
            <Array as="points">
              <mxPoint x="400" y="550" />
              <mxPoint x="400" y="550" />
            </Array>
          </mxGeometry>
        </mxCell>
        <mxCell id="8KkNLTuFki5gpUxNbEMF-99" value="0,N" style="edgeLabel;html=1;align=center;verticalAlign=middle;resizable=0;points=[];fontFamily=Helvetica;fontSize=11;fontColor=default;labelBackgroundColor=default;" vertex="1" connectable="0" parent="8KkNLTuFki5gpUxNbEMF-36">
          <mxGeometry x="0.7121" y="-2" relative="1" as="geometry">
            <mxPoint as="offset" />
          </mxGeometry>
        </mxCell>
        <mxCell id="8KkNLTuFki5gpUxNbEMF-34" value="tiene asignado" style="rhombus;whiteSpace=wrap;html=1;fontFamily=Helvetica;fontSize=11;fontColor=#333333;labelBackgroundColor=default;fillColor=#f5f5f5;strokeColor=#666666;" vertex="1" parent="1">
          <mxGeometry x="350" y="250" width="80" height="80" as="geometry" />
        </mxCell>
        <mxCell id="8KkNLTuFki5gpUxNbEMF-40" value="" style="edgeStyle=orthogonalEdgeStyle;shape=connector;rounded=0;orthogonalLoop=1;jettySize=auto;html=1;strokeColor=default;align=center;verticalAlign=middle;fontFamily=Helvetica;fontSize=11;fontColor=default;labelBackgroundColor=default;endArrow=none;endFill=0;" edge="1" parent="1" source="8KkNLTuFki5gpUxNbEMF-37" target="8KkNLTuFki5gpUxNbEMF-38">
          <mxGeometry relative="1" as="geometry" />
        </mxCell>
        <mxCell id="8KkNLTuFki5gpUxNbEMF-82" value="0,N" style="edgeLabel;html=1;align=center;verticalAlign=middle;resizable=0;points=[];fontFamily=Helvetica;fontSize=11;fontColor=default;labelBackgroundColor=default;" vertex="1" connectable="0" parent="8KkNLTuFki5gpUxNbEMF-40">
          <mxGeometry x="-0.4322" relative="1" as="geometry">
            <mxPoint as="offset" />
          </mxGeometry>
        </mxCell>
        <mxCell id="8KkNLTuFki5gpUxNbEMF-43" value="" style="edgeStyle=orthogonalEdgeStyle;shape=connector;rounded=0;orthogonalLoop=1;jettySize=auto;html=1;strokeColor=default;align=center;verticalAlign=middle;fontFamily=Helvetica;fontSize=11;fontColor=default;labelBackgroundColor=default;endArrow=none;endFill=0;" edge="1" parent="1" source="8KkNLTuFki5gpUxNbEMF-37" target="8KkNLTuFki5gpUxNbEMF-42">
          <mxGeometry relative="1" as="geometry" />
        </mxCell>
        <mxCell id="8KkNLTuFki5gpUxNbEMF-86" value="0,N" style="edgeLabel;html=1;align=center;verticalAlign=middle;resizable=0;points=[];fontFamily=Helvetica;fontSize=11;fontColor=default;labelBackgroundColor=default;" vertex="1" connectable="0" parent="8KkNLTuFki5gpUxNbEMF-43">
          <mxGeometry x="-0.8693" y="-3" relative="1" as="geometry">
            <mxPoint as="offset" />
          </mxGeometry>
        </mxCell>
        <mxCell id="8KkNLTuFki5gpUxNbEMF-142" style="edgeStyle=orthogonalEdgeStyle;shape=connector;rounded=0;orthogonalLoop=1;jettySize=auto;html=1;exitX=0.25;exitY=1;exitDx=0;exitDy=0;strokeColor=default;align=center;verticalAlign=middle;fontFamily=Helvetica;fontSize=11;fontColor=default;labelBackgroundColor=default;endArrow=none;endFill=0;entryX=0.613;entryY=-0.026;entryDx=0;entryDy=0;entryPerimeter=0;" edge="1" parent="1" source="8KkNLTuFki5gpUxNbEMF-37" target="8KkNLTuFki5gpUxNbEMF-139">
          <mxGeometry relative="1" as="geometry">
            <mxPoint x="930.1428571428571" y="760" as="targetPoint" />
          </mxGeometry>
        </mxCell>
        <mxCell id="8KkNLTuFki5gpUxNbEMF-144" style="edgeStyle=orthogonalEdgeStyle;shape=connector;rounded=0;orthogonalLoop=1;jettySize=auto;html=1;exitX=1;exitY=1;exitDx=0;exitDy=0;entryX=0;entryY=0;entryDx=0;entryDy=0;strokeColor=default;align=center;verticalAlign=middle;fontFamily=Helvetica;fontSize=11;fontColor=default;labelBackgroundColor=default;endArrow=none;endFill=0;" edge="1" parent="1" source="8KkNLTuFki5gpUxNbEMF-37" target="8KkNLTuFki5gpUxNbEMF-140">
          <mxGeometry relative="1" as="geometry" />
        </mxCell>
        <mxCell id="8KkNLTuFki5gpUxNbEMF-37" value="members history" style="rounded=0;whiteSpace=wrap;html=1;" vertex="1" parent="1">
          <mxGeometry x="900" y="670" width="120" height="60" as="geometry" />
        </mxCell>
        <mxCell id="8KkNLTuFki5gpUxNbEMF-38" value="registra" style="rhombus;whiteSpace=wrap;html=1;fontFamily=Helvetica;fontSize=11;fontColor=#333333;labelBackgroundColor=default;fillColor=#f5f5f5;strokeColor=#666666;" vertex="1" parent="1">
          <mxGeometry x="727" y="660" width="80" height="80" as="geometry" />
        </mxCell>
        <mxCell id="8KkNLTuFki5gpUxNbEMF-44" style="edgeStyle=orthogonalEdgeStyle;shape=connector;rounded=0;orthogonalLoop=1;jettySize=auto;html=1;entryX=0.5;entryY=0;entryDx=0;entryDy=0;strokeColor=default;align=center;verticalAlign=middle;fontFamily=Helvetica;fontSize=11;fontColor=default;labelBackgroundColor=default;endArrow=none;endFill=0;" edge="1" parent="1" source="8KkNLTuFki5gpUxNbEMF-42" target="8KkNLTuFki5gpUxNbEMF-2">
          <mxGeometry relative="1" as="geometry" />
        </mxCell>
        <mxCell id="8KkNLTuFki5gpUxNbEMF-85" value="1,1" style="edgeLabel;html=1;align=center;verticalAlign=middle;resizable=0;points=[];fontFamily=Helvetica;fontSize=11;fontColor=default;labelBackgroundColor=default;" vertex="1" connectable="0" parent="8KkNLTuFki5gpUxNbEMF-44">
          <mxGeometry x="0.9506" y="3" relative="1" as="geometry">
            <mxPoint as="offset" />
          </mxGeometry>
        </mxCell>
        <mxCell id="8KkNLTuFki5gpUxNbEMF-42" value="registra" style="rhombus;whiteSpace=wrap;html=1;fontFamily=Helvetica;fontSize=11;fontColor=#333333;labelBackgroundColor=default;fillColor=#f5f5f5;strokeColor=#666666;" vertex="1" parent="1">
          <mxGeometry x="920" y="380" width="80" height="80" as="geometry" />
        </mxCell>
        <mxCell id="8KkNLTuFki5gpUxNbEMF-195" style="edgeStyle=orthogonalEdgeStyle;shape=connector;rounded=0;orthogonalLoop=1;jettySize=auto;html=1;exitX=0;exitY=0;exitDx=0;exitDy=0;entryX=1;entryY=0.5;entryDx=0;entryDy=0;strokeColor=default;align=center;verticalAlign=middle;fontFamily=Helvetica;fontSize=11;fontColor=default;labelBackgroundColor=default;endArrow=none;endFill=0;" edge="1" parent="1" source="8KkNLTuFki5gpUxNbEMF-45" target="8KkNLTuFki5gpUxNbEMF-190">
          <mxGeometry relative="1" as="geometry">
            <Array as="points">
              <mxPoint x="480" y="-70" />
              <mxPoint x="440" y="-70" />
              <mxPoint x="440" y="-75" />
            </Array>
          </mxGeometry>
        </mxCell>
        <mxCell id="8KkNLTuFki5gpUxNbEMF-196" style="edgeStyle=orthogonalEdgeStyle;shape=connector;rounded=0;orthogonalLoop=1;jettySize=auto;html=1;exitX=0;exitY=0.5;exitDx=0;exitDy=0;entryX=1;entryY=0.5;entryDx=0;entryDy=0;strokeColor=default;align=center;verticalAlign=middle;fontFamily=Helvetica;fontSize=11;fontColor=default;labelBackgroundColor=default;endArrow=none;endFill=0;" edge="1" parent="1" source="8KkNLTuFki5gpUxNbEMF-45" target="8KkNLTuFki5gpUxNbEMF-191">
          <mxGeometry relative="1" as="geometry" />
        </mxCell>
        <mxCell id="8KkNLTuFki5gpUxNbEMF-198" style="edgeStyle=orthogonalEdgeStyle;shape=connector;rounded=0;orthogonalLoop=1;jettySize=auto;html=1;exitX=0.5;exitY=0;exitDx=0;exitDy=0;entryX=1;entryY=0;entryDx=0;entryDy=0;strokeColor=default;align=center;verticalAlign=middle;fontFamily=Helvetica;fontSize=11;fontColor=default;labelBackgroundColor=default;endArrow=none;endFill=0;" edge="1" parent="1" source="8KkNLTuFki5gpUxNbEMF-194" target="8KkNLTuFki5gpUxNbEMF-193">
          <mxGeometry relative="1" as="geometry">
            <Array as="points">
              <mxPoint x="490" y="-20" />
              <mxPoint x="480" y="-20" />
              <mxPoint x="480" y="50" />
              <mxPoint x="439" y="50" />
            </Array>
          </mxGeometry>
        </mxCell>
        <mxCell id="8KkNLTuFki5gpUxNbEMF-45" value="comments" style="rounded=0;whiteSpace=wrap;html=1;" vertex="1" parent="1">
          <mxGeometry x="480" y="-80" width="120" height="60" as="geometry" />
        </mxCell>
        <mxCell id="8KkNLTuFki5gpUxNbEMF-48" value="" style="edgeStyle=orthogonalEdgeStyle;shape=connector;rounded=0;orthogonalLoop=1;jettySize=auto;html=1;strokeColor=default;align=center;verticalAlign=middle;fontFamily=Helvetica;fontSize=11;fontColor=default;labelBackgroundColor=default;endArrow=none;endFill=0;" edge="1" parent="1" source="8KkNLTuFki5gpUxNbEMF-46" target="8KkNLTuFki5gpUxNbEMF-45">
          <mxGeometry relative="1" as="geometry" />
        </mxCell>
        <mxCell id="8KkNLTuFki5gpUxNbEMF-107" value="0,N" style="edgeLabel;html=1;align=center;verticalAlign=middle;resizable=0;points=[];fontFamily=Helvetica;fontSize=11;fontColor=default;labelBackgroundColor=default;" vertex="1" connectable="0" parent="8KkNLTuFki5gpUxNbEMF-48">
          <mxGeometry x="0.5833" y="-3" relative="1" as="geometry">
            <mxPoint as="offset" />
          </mxGeometry>
        </mxCell>
        <mxCell id="8KkNLTuFki5gpUxNbEMF-46" value="tiene" style="rhombus;whiteSpace=wrap;html=1;fontFamily=Helvetica;fontSize=11;fontColor=#333333;labelBackgroundColor=default;fillColor=#f5f5f5;strokeColor=#666666;" vertex="1" parent="1">
          <mxGeometry x="660" y="-90" width="80" height="80" as="geometry" />
        </mxCell>
        <mxCell id="8KkNLTuFki5gpUxNbEMF-52" style="edgeStyle=orthogonalEdgeStyle;shape=connector;rounded=0;orthogonalLoop=1;jettySize=auto;html=1;entryX=0.5;entryY=1;entryDx=0;entryDy=0;strokeColor=default;align=center;verticalAlign=middle;fontFamily=Helvetica;fontSize=11;fontColor=default;labelBackgroundColor=default;endArrow=none;endFill=0;" edge="1" parent="1" source="8KkNLTuFki5gpUxNbEMF-50" target="8KkNLTuFki5gpUxNbEMF-45">
          <mxGeometry relative="1" as="geometry" />
        </mxCell>
        <mxCell id="8KkNLTuFki5gpUxNbEMF-108" value="0,N" style="edgeLabel;html=1;align=center;verticalAlign=middle;resizable=0;points=[];fontFamily=Helvetica;fontSize=11;fontColor=default;labelBackgroundColor=default;" vertex="1" connectable="0" parent="8KkNLTuFki5gpUxNbEMF-52">
          <mxGeometry x="0.6956" y="-3" relative="1" as="geometry">
            <mxPoint as="offset" />
          </mxGeometry>
        </mxCell>
        <mxCell id="8KkNLTuFki5gpUxNbEMF-50" value="realiza" style="rhombus;whiteSpace=wrap;html=1;fontFamily=Helvetica;fontSize=11;fontColor=#333333;labelBackgroundColor=default;fillColor=#f5f5f5;strokeColor=#666666;" vertex="1" parent="1">
          <mxGeometry x="500" y="310" width="80" height="80" as="geometry" />
        </mxCell>
        <mxCell id="8KkNLTuFki5gpUxNbEMF-53" value="tasks history" style="rounded=0;whiteSpace=wrap;html=1;" vertex="1" parent="1">
          <mxGeometry x="1060" y="-80" width="120" height="60" as="geometry" />
        </mxCell>
        <mxCell id="8KkNLTuFki5gpUxNbEMF-56" style="edgeStyle=orthogonalEdgeStyle;shape=connector;rounded=0;orthogonalLoop=1;jettySize=auto;html=1;entryX=0;entryY=0.5;entryDx=0;entryDy=0;strokeColor=default;align=center;verticalAlign=middle;fontFamily=Helvetica;fontSize=11;fontColor=default;labelBackgroundColor=default;endArrow=none;endFill=0;" edge="1" parent="1" source="8KkNLTuFki5gpUxNbEMF-54" target="8KkNLTuFki5gpUxNbEMF-53">
          <mxGeometry relative="1" as="geometry" />
        </mxCell>
        <mxCell id="8KkNLTuFki5gpUxNbEMF-104" value="0,N" style="edgeLabel;html=1;align=center;verticalAlign=middle;resizable=0;points=[];fontFamily=Helvetica;fontSize=11;fontColor=default;labelBackgroundColor=default;" vertex="1" connectable="0" parent="8KkNLTuFki5gpUxNbEMF-56">
          <mxGeometry x="0.787" y="1" relative="1" as="geometry">
            <mxPoint as="offset" />
          </mxGeometry>
        </mxCell>
        <mxCell id="8KkNLTuFki5gpUxNbEMF-54" value="registra" style="rhombus;whiteSpace=wrap;html=1;fontFamily=Helvetica;fontSize=11;fontColor=#333333;labelBackgroundColor=default;fillColor=#f5f5f5;strokeColor=#666666;" vertex="1" parent="1">
          <mxGeometry x="800" y="-90" width="80" height="80" as="geometry" />
        </mxCell>
        <mxCell id="8KkNLTuFki5gpUxNbEMF-60" value="" style="edgeStyle=orthogonalEdgeStyle;shape=connector;rounded=0;orthogonalLoop=1;jettySize=auto;html=1;strokeColor=default;align=center;verticalAlign=middle;fontFamily=Helvetica;fontSize=11;fontColor=default;labelBackgroundColor=default;endArrow=none;endFill=0;" edge="1" parent="1" source="8KkNLTuFki5gpUxNbEMF-57" target="8KkNLTuFki5gpUxNbEMF-59">
          <mxGeometry relative="1" as="geometry" />
        </mxCell>
        <mxCell id="8KkNLTuFki5gpUxNbEMF-111" value="1,1" style="edgeLabel;html=1;align=center;verticalAlign=middle;resizable=0;points=[];fontFamily=Helvetica;fontSize=11;fontColor=default;labelBackgroundColor=default;" vertex="1" connectable="0" parent="8KkNLTuFki5gpUxNbEMF-60">
          <mxGeometry x="0.463" y="2" relative="1" as="geometry">
            <mxPoint as="offset" />
          </mxGeometry>
        </mxCell>
        <mxCell id="8KkNLTuFki5gpUxNbEMF-57" value="tiene" style="rhombus;whiteSpace=wrap;html=1;fontFamily=Helvetica;fontSize=11;fontColor=#333333;labelBackgroundColor=default;fillColor=#f5f5f5;strokeColor=#666666;" vertex="1" parent="1">
          <mxGeometry x="920" y="190" width="80" height="80" as="geometry" />
        </mxCell>
        <mxCell id="8KkNLTuFki5gpUxNbEMF-156" style="edgeStyle=orthogonalEdgeStyle;shape=connector;rounded=0;orthogonalLoop=1;jettySize=auto;html=1;exitX=1;exitY=1;exitDx=0;exitDy=0;entryX=0;entryY=0.5;entryDx=0;entryDy=0;strokeColor=default;align=center;verticalAlign=middle;fontFamily=Helvetica;fontSize=11;fontColor=default;labelBackgroundColor=default;endArrow=none;endFill=0;" edge="1" parent="1" source="8KkNLTuFki5gpUxNbEMF-59" target="8KkNLTuFki5gpUxNbEMF-154">
          <mxGeometry relative="1" as="geometry" />
        </mxCell>
        <mxCell id="8KkNLTuFki5gpUxNbEMF-59" value="tasks status" style="rounded=0;whiteSpace=wrap;html=1;" vertex="1" parent="1">
          <mxGeometry x="1090" y="200" width="120" height="60" as="geometry" />
        </mxCell>
        <mxCell id="8KkNLTuFki5gpUxNbEMF-67" style="edgeStyle=orthogonalEdgeStyle;shape=connector;rounded=0;orthogonalLoop=1;jettySize=auto;html=1;entryX=0;entryY=0.5;entryDx=0;entryDy=0;strokeColor=default;align=center;verticalAlign=middle;fontFamily=Helvetica;fontSize=11;fontColor=default;labelBackgroundColor=default;endArrow=none;endFill=0;" edge="1" parent="1" source="8KkNLTuFki5gpUxNbEMF-61" target="8KkNLTuFki5gpUxNbEMF-66">
          <mxGeometry relative="1" as="geometry" />
        </mxCell>
        <mxCell id="8KkNLTuFki5gpUxNbEMF-102" value="1,1" style="edgeLabel;html=1;align=center;verticalAlign=middle;resizable=0;points=[];fontFamily=Helvetica;fontSize=11;fontColor=default;labelBackgroundColor=default;" vertex="1" connectable="0" parent="8KkNLTuFki5gpUxNbEMF-67">
          <mxGeometry x="-0.9162" y="1" relative="1" as="geometry">
            <mxPoint as="offset" />
          </mxGeometry>
        </mxCell>
        <mxCell id="8KkNLTuFki5gpUxNbEMF-69" style="edgeStyle=orthogonalEdgeStyle;shape=connector;rounded=0;orthogonalLoop=1;jettySize=auto;html=1;entryX=0.5;entryY=0;entryDx=0;entryDy=0;strokeColor=default;align=center;verticalAlign=middle;fontFamily=Helvetica;fontSize=11;fontColor=default;labelBackgroundColor=default;endArrow=none;endFill=0;" edge="1" parent="1" source="8KkNLTuFki5gpUxNbEMF-61" target="8KkNLTuFki5gpUxNbEMF-63">
          <mxGeometry relative="1" as="geometry" />
        </mxCell>
        <mxCell id="8KkNLTuFki5gpUxNbEMF-101" value="1,1" style="edgeLabel;html=1;align=center;verticalAlign=middle;resizable=0;points=[];fontFamily=Helvetica;fontSize=11;fontColor=default;labelBackgroundColor=default;" vertex="1" connectable="0" parent="8KkNLTuFki5gpUxNbEMF-69">
          <mxGeometry x="-0.7463" y="3" relative="1" as="geometry">
            <mxPoint as="offset" />
          </mxGeometry>
        </mxCell>
        <mxCell id="8KkNLTuFki5gpUxNbEMF-61" value="users tasks status" style="whiteSpace=wrap;html=1;fontFamily=Helvetica;fontSize=11;labelBackgroundColor=default;" vertex="1" parent="1">
          <mxGeometry x="110" y="-140" width="120" height="60" as="geometry" />
        </mxCell>
        <mxCell id="8KkNLTuFki5gpUxNbEMF-70" style="edgeStyle=orthogonalEdgeStyle;shape=connector;rounded=0;orthogonalLoop=1;jettySize=auto;html=1;entryX=0;entryY=0.25;entryDx=0;entryDy=0;strokeColor=default;align=center;verticalAlign=middle;fontFamily=Helvetica;fontSize=11;fontColor=default;labelBackgroundColor=default;endArrow=none;endFill=0;" edge="1" parent="1" source="8KkNLTuFki5gpUxNbEMF-63" target="8KkNLTuFki5gpUxNbEMF-2">
          <mxGeometry relative="1" as="geometry" />
        </mxCell>
        <mxCell id="8KkNLTuFki5gpUxNbEMF-100" value="0,N" style="edgeLabel;html=1;align=center;verticalAlign=middle;resizable=0;points=[];fontFamily=Helvetica;fontSize=11;fontColor=default;labelBackgroundColor=default;" vertex="1" connectable="0" parent="8KkNLTuFki5gpUxNbEMF-70">
          <mxGeometry x="0.9061" y="1" relative="1" as="geometry">
            <mxPoint as="offset" />
          </mxGeometry>
        </mxCell>
        <mxCell id="8KkNLTuFki5gpUxNbEMF-63" value="tiene&lt;span style=&quot;color: rgba(0, 0, 0, 0); font-family: monospace; font-size: 0px; text-align: start; text-wrap-mode: nowrap; background-color: rgb(251, 251, 251);&quot;&gt;%3CmxGraphModel%3E%3Croot%3E%3CmxCell%20id%3D%220%22%2F%3E%3CmxCell%20id%3D%221%22%20parent%3D%220%22%2F%3E%3CmxCell%20id%3D%222%22%20value%3D%22tiene%20asignado%22%20style%3D%22rhombus%3BwhiteSpace%3Dwrap%3Bhtml%3D1%3BfontFamily%3DHelvetica%3BfontSize%3D11%3BfontColor%3Ddefault%3BlabelBackgroundColor%3Ddefault%3B%22%20vertex%3D%221%22%20parent%3D%221%22%3E%3CmxGeometry%20x%3D%22350%22%20y%3D%22250%22%20width%3D%2280%22%20height%3D%2280%22%20as%3D%22geometry%22%2F%3E%3C%2FmxCell%3E%3C%2Froot%3E%3C%2FmxGraphModel%3E&lt;/span&gt;" style="rhombus;whiteSpace=wrap;html=1;fontFamily=Helvetica;fontSize=11;fontColor=#333333;labelBackgroundColor=default;fillColor=#f5f5f5;strokeColor=#666666;" vertex="1" parent="1">
          <mxGeometry x="130" y="280" width="80" height="80" as="geometry" />
        </mxCell>
        <mxCell id="8KkNLTuFki5gpUxNbEMF-68" style="edgeStyle=orthogonalEdgeStyle;shape=connector;rounded=0;orthogonalLoop=1;jettySize=auto;html=1;entryX=0.5;entryY=0;entryDx=0;entryDy=0;strokeColor=default;align=center;verticalAlign=middle;fontFamily=Helvetica;fontSize=11;fontColor=default;labelBackgroundColor=default;endArrow=none;endFill=0;" edge="1" parent="1" source="8KkNLTuFki5gpUxNbEMF-66" target="8KkNLTuFki5gpUxNbEMF-29">
          <mxGeometry relative="1" as="geometry" />
        </mxCell>
        <mxCell id="8KkNLTuFki5gpUxNbEMF-103" value="0,N" style="edgeLabel;html=1;align=center;verticalAlign=middle;resizable=0;points=[];fontFamily=Helvetica;fontSize=11;fontColor=default;labelBackgroundColor=default;" vertex="1" connectable="0" parent="8KkNLTuFki5gpUxNbEMF-68">
          <mxGeometry x="0.7378" y="2" relative="1" as="geometry">
            <mxPoint as="offset" />
          </mxGeometry>
        </mxCell>
        <mxCell id="8KkNLTuFki5gpUxNbEMF-66" value="con" style="rhombus;whiteSpace=wrap;html=1;fontFamily=Helvetica;fontSize=11;fontColor=#333333;labelBackgroundColor=default;fillColor=#f5f5f5;strokeColor=#666666;" vertex="1" parent="1">
          <mxGeometry x="727" y="-150" width="80" height="80" as="geometry" />
        </mxCell>
        <mxCell id="8KkNLTuFki5gpUxNbEMF-150" style="edgeStyle=orthogonalEdgeStyle;shape=connector;rounded=0;orthogonalLoop=1;jettySize=auto;html=1;exitX=1;exitY=1;exitDx=0;exitDy=0;entryX=0;entryY=0;entryDx=0;entryDy=0;strokeColor=default;align=center;verticalAlign=middle;fontFamily=Helvetica;fontSize=11;fontColor=default;labelBackgroundColor=default;endArrow=none;endFill=0;" edge="1" parent="1" source="8KkNLTuFki5gpUxNbEMF-71" target="8KkNLTuFki5gpUxNbEMF-147">
          <mxGeometry relative="1" as="geometry" />
        </mxCell>
        <mxCell id="8KkNLTuFki5gpUxNbEMF-151" value="" style="edgeStyle=orthogonalEdgeStyle;shape=connector;rounded=0;orthogonalLoop=1;jettySize=auto;html=1;strokeColor=default;align=center;verticalAlign=middle;fontFamily=Helvetica;fontSize=11;fontColor=default;labelBackgroundColor=default;endArrow=none;endFill=0;" edge="1" parent="1" source="8KkNLTuFki5gpUxNbEMF-71" target="8KkNLTuFki5gpUxNbEMF-145">
          <mxGeometry relative="1" as="geometry" />
        </mxCell>
        <mxCell id="8KkNLTuFki5gpUxNbEMF-71" value="query logs" style="rounded=0;whiteSpace=wrap;html=1;" vertex="1" parent="1">
          <mxGeometry x="1030" y="310" width="120" height="60" as="geometry" />
        </mxCell>
        <mxCell id="8KkNLTuFki5gpUxNbEMF-95" style="edgeStyle=orthogonalEdgeStyle;shape=connector;rounded=0;orthogonalLoop=1;jettySize=auto;html=1;entryX=0.5;entryY=1;entryDx=0;entryDy=0;strokeColor=default;align=center;verticalAlign=middle;fontFamily=Helvetica;fontSize=11;fontColor=default;labelBackgroundColor=default;endArrow=none;endFill=0;" edge="1" parent="1" source="8KkNLTuFki5gpUxNbEMF-93" target="8KkNLTuFki5gpUxNbEMF-29">
          <mxGeometry relative="1" as="geometry" />
        </mxCell>
        <mxCell id="8KkNLTuFki5gpUxNbEMF-96" value="0,N" style="edgeLabel;html=1;align=center;verticalAlign=middle;resizable=0;points=[];fontFamily=Helvetica;fontSize=11;fontColor=default;labelBackgroundColor=default;" vertex="1" connectable="0" parent="8KkNLTuFki5gpUxNbEMF-95">
          <mxGeometry x="0.6882" y="2" relative="1" as="geometry">
            <mxPoint as="offset" />
          </mxGeometry>
        </mxCell>
        <mxCell id="8KkNLTuFki5gpUxNbEMF-93" value="tiene" style="rhombus;whiteSpace=wrap;html=1;fontFamily=Helvetica;fontSize=11;fontColor=#333333;labelBackgroundColor=default;fillColor=#f5f5f5;strokeColor=#666666;" vertex="1" parent="1">
          <mxGeometry x="727" y="480" width="80" height="80" as="geometry" />
        </mxCell>
        <mxCell id="8KkNLTuFki5gpUxNbEMF-112" value="id" style="ellipse;whiteSpace=wrap;html=1;fontFamily=Helvetica;fontSize=11;labelBackgroundColor=default;fillColor=#cce5ff;strokeColor=#36393d;" vertex="1" parent="1">
          <mxGeometry x="334" y="590" width="80" height="50" as="geometry" />
        </mxCell>
        <mxCell id="8KkNLTuFki5gpUxNbEMF-113" style="edgeStyle=orthogonalEdgeStyle;shape=connector;rounded=0;orthogonalLoop=1;jettySize=auto;html=1;exitX=0;exitY=1;exitDx=0;exitDy=0;entryX=0.82;entryY=0.052;entryDx=0;entryDy=0;entryPerimeter=0;strokeColor=default;align=center;verticalAlign=middle;fontFamily=Helvetica;fontSize=11;fontColor=default;labelBackgroundColor=default;endArrow=none;endFill=0;" edge="1" parent="1" source="8KkNLTuFki5gpUxNbEMF-2" target="8KkNLTuFki5gpUxNbEMF-112">
          <mxGeometry relative="1" as="geometry" />
        </mxCell>
        <mxCell id="8KkNLTuFki5gpUxNbEMF-115" value="username" style="ellipse;whiteSpace=wrap;html=1;fontFamily=Helvetica;fontSize=11;labelBackgroundColor=default;fillColor=#cce5ff;strokeColor=#36393d;" vertex="1" parent="1">
          <mxGeometry x="480" y="450" width="80" height="50" as="geometry" />
        </mxCell>
        <mxCell id="8KkNLTuFki5gpUxNbEMF-116" style="edgeStyle=orthogonalEdgeStyle;shape=connector;rounded=0;orthogonalLoop=1;jettySize=auto;html=1;exitX=1;exitY=0;exitDx=0;exitDy=0;entryX=0.218;entryY=0.878;entryDx=0;entryDy=0;entryPerimeter=0;strokeColor=default;align=center;verticalAlign=middle;fontFamily=Helvetica;fontSize=11;fontColor=default;labelBackgroundColor=default;endArrow=none;endFill=0;" edge="1" parent="1" source="8KkNLTuFki5gpUxNbEMF-2" target="8KkNLTuFki5gpUxNbEMF-115">
          <mxGeometry relative="1" as="geometry" />
        </mxCell>
        <mxCell id="8KkNLTuFki5gpUxNbEMF-117" value="email" style="ellipse;whiteSpace=wrap;html=1;fontFamily=Helvetica;fontSize=11;labelBackgroundColor=default;fillColor=#cce5ff;strokeColor=#36393d;" vertex="1" parent="1">
          <mxGeometry x="440" y="580" width="80" height="50" as="geometry" />
        </mxCell>
        <mxCell id="8KkNLTuFki5gpUxNbEMF-118" style="edgeStyle=orthogonalEdgeStyle;shape=connector;rounded=0;orthogonalLoop=1;jettySize=auto;html=1;exitX=0.75;exitY=1;exitDx=0;exitDy=0;entryX=0.28;entryY=0.066;entryDx=0;entryDy=0;entryPerimeter=0;strokeColor=default;align=center;verticalAlign=middle;fontFamily=Helvetica;fontSize=11;fontColor=default;labelBackgroundColor=default;endArrow=none;endFill=0;" edge="1" parent="1" source="8KkNLTuFki5gpUxNbEMF-2" target="8KkNLTuFki5gpUxNbEMF-117">
          <mxGeometry relative="1" as="geometry" />
        </mxCell>
        <mxCell id="8KkNLTuFki5gpUxNbEMF-119" value="password" style="ellipse;whiteSpace=wrap;html=1;fontFamily=Helvetica;fontSize=11;labelBackgroundColor=default;fillColor=#cce5ff;strokeColor=#36393d;" vertex="1" parent="1">
          <mxGeometry x="300" y="450" width="80" height="50" as="geometry" />
        </mxCell>
        <mxCell id="8KkNLTuFki5gpUxNbEMF-120" style="edgeStyle=orthogonalEdgeStyle;shape=connector;rounded=0;orthogonalLoop=1;jettySize=auto;html=1;exitX=0;exitY=0;exitDx=0;exitDy=0;entryX=0.784;entryY=0.889;entryDx=0;entryDy=0;entryPerimeter=0;strokeColor=default;align=center;verticalAlign=middle;fontFamily=Helvetica;fontSize=11;fontColor=default;labelBackgroundColor=default;endArrow=none;endFill=0;" edge="1" parent="1" source="8KkNLTuFki5gpUxNbEMF-2" target="8KkNLTuFki5gpUxNbEMF-119">
          <mxGeometry relative="1" as="geometry" />
        </mxCell>
        <mxCell id="8KkNLTuFki5gpUxNbEMF-121" value="photo" style="ellipse;whiteSpace=wrap;html=1;fontFamily=Helvetica;fontSize=11;labelBackgroundColor=default;fillColor=#cce5ff;strokeColor=#36393d;" vertex="1" parent="1">
          <mxGeometry x="280" y="540" width="80" height="50" as="geometry" />
        </mxCell>
        <mxCell id="8KkNLTuFki5gpUxNbEMF-123" value="photo" style="ellipse;whiteSpace=wrap;html=1;fontFamily=Helvetica;fontSize=11;labelBackgroundColor=default;fillColor=#cce5ff;strokeColor=#36393d;" vertex="1" parent="1">
          <mxGeometry x="500" y="540" width="80" height="50" as="geometry" />
        </mxCell>
        <mxCell id="8KkNLTuFki5gpUxNbEMF-124" style="edgeStyle=orthogonalEdgeStyle;shape=connector;rounded=0;orthogonalLoop=1;jettySize=auto;html=1;exitX=1;exitY=1;exitDx=0;exitDy=0;entryX=-0.03;entryY=0.414;entryDx=0;entryDy=0;entryPerimeter=0;strokeColor=default;align=center;verticalAlign=middle;fontFamily=Helvetica;fontSize=11;fontColor=default;labelBackgroundColor=default;endArrow=none;endFill=0;" edge="1" parent="1" source="8KkNLTuFki5gpUxNbEMF-2" target="8KkNLTuFki5gpUxNbEMF-123">
          <mxGeometry relative="1" as="geometry" />
        </mxCell>
        <mxCell id="8KkNLTuFki5gpUxNbEMF-125" value="id" style="ellipse;whiteSpace=wrap;html=1;fontFamily=Helvetica;fontSize=11;labelBackgroundColor=default;fillColor=#f0a30a;strokeColor=#BD7000;fontColor=#000000;" vertex="1" parent="1">
          <mxGeometry x="440" y="740" width="80" height="50" as="geometry" />
        </mxCell>
        <mxCell id="8KkNLTuFki5gpUxNbEMF-126" value="title" style="ellipse;whiteSpace=wrap;html=1;fontFamily=Helvetica;fontSize=11;labelBackgroundColor=default;fillColor=#cce5ff;strokeColor=#36393d;" vertex="1" parent="1">
          <mxGeometry x="510" y="770" width="80" height="50" as="geometry" />
        </mxCell>
        <mxCell id="8KkNLTuFki5gpUxNbEMF-127" value="date&lt;span style=&quot;color: rgba(0, 0, 0, 0); font-family: monospace; font-size: 0px; text-align: start; text-wrap-mode: nowrap; background-color: rgb(251, 251, 251);&quot;&gt;%3CmxGraphModel%3E%3Croot%3E%3CmxCell%20id%3D%220%22%2F%3E%3CmxCell%20id%3D%221%22%20parent%3D%220%22%2F%3E%3CmxCell%20id%3D%222%22%20value%3D%22email%22%20style%3D%22ellipse%3BwhiteSpace%3Dwrap%3Bhtml%3D1%3BfontFamily%3DHelvetica%3BfontSize%3D11%3BlabelBackgroundColor%3Ddefault%3B%22%20vertex%3D%221%22%20parent%3D%221%22%3E%3CmxGeometry%20x%3D%22440%22%20y%3D%22580%22%20width%3D%2280%22%20height%3D%2250%22%20as%3D%22geometry%22%2F%3E%3C%2FmxCell%3E%3C%2Froot%3E%3C%2FmxGraphModel%3E&lt;/span&gt;" style="ellipse;whiteSpace=wrap;html=1;fontFamily=Helvetica;fontSize=11;labelBackgroundColor=default;fillColor=#cce5ff;strokeColor=#36393d;" vertex="1" parent="1">
          <mxGeometry x="590" y="770" width="80" height="50" as="geometry" />
        </mxCell>
        <mxCell id="8KkNLTuFki5gpUxNbEMF-130" style="edgeStyle=orthogonalEdgeStyle;shape=connector;rounded=0;orthogonalLoop=1;jettySize=auto;html=1;exitX=0.25;exitY=1;exitDx=0;exitDy=0;entryX=0.609;entryY=-0.049;entryDx=0;entryDy=0;entryPerimeter=0;strokeColor=default;align=center;verticalAlign=middle;fontFamily=Helvetica;fontSize=11;fontColor=default;labelBackgroundColor=default;endArrow=none;endFill=0;" edge="1" parent="1" source="8KkNLTuFki5gpUxNbEMF-9" target="8KkNLTuFki5gpUxNbEMF-126">
          <mxGeometry relative="1" as="geometry" />
        </mxCell>
        <mxCell id="8KkNLTuFki5gpUxNbEMF-135" value="owner_id" style="ellipse;shape=doubleEllipse;whiteSpace=wrap;html=1;fontFamily=Helvetica;fontSize=11;labelBackgroundColor=default;fillColor=#cce5ff;strokeColor=#36393d;" vertex="1" parent="1">
          <mxGeometry x="670" y="750" width="80" height="50" as="geometry" />
        </mxCell>
        <mxCell id="8KkNLTuFki5gpUxNbEMF-137" value="id" style="ellipse;whiteSpace=wrap;html=1;fontFamily=Helvetica;fontSize=11;labelBackgroundColor=default;fillColor=#f0a30a;strokeColor=#BD7000;fontColor=#000000;" vertex="1" parent="1">
          <mxGeometry x="807" y="740" width="80" height="50" as="geometry" />
        </mxCell>
        <mxCell id="8KkNLTuFki5gpUxNbEMF-138" value="action" style="ellipse;whiteSpace=wrap;html=1;fontFamily=Helvetica;fontSize=11;labelBackgroundColor=default;fillColor=#cce5ff;strokeColor=#36393d;" vertex="1" parent="1">
          <mxGeometry x="970" y="770" width="80" height="50" as="geometry" />
        </mxCell>
        <mxCell id="8KkNLTuFki5gpUxNbEMF-139" value="user_id" style="ellipse;shape=doubleEllipse;whiteSpace=wrap;html=1;fontFamily=Helvetica;fontSize=11;labelBackgroundColor=default;fillColor=#cce5ff;strokeColor=#36393d;" vertex="1" parent="1">
          <mxGeometry x="880" y="770" width="80" height="50" as="geometry" />
        </mxCell>
        <mxCell id="8KkNLTuFki5gpUxNbEMF-140" value="proyect_id" style="ellipse;shape=doubleEllipse;whiteSpace=wrap;html=1;fontFamily=Helvetica;fontSize=11;labelBackgroundColor=default;fillColor=#cce5ff;strokeColor=#36393d;" vertex="1" parent="1">
          <mxGeometry x="1040" y="740" width="80" height="50" as="geometry" />
        </mxCell>
        <mxCell id="8KkNLTuFki5gpUxNbEMF-141" style="edgeStyle=orthogonalEdgeStyle;shape=connector;rounded=0;orthogonalLoop=1;jettySize=auto;html=1;exitX=0;exitY=1;exitDx=0;exitDy=0;entryX=0.718;entryY=0.094;entryDx=0;entryDy=0;entryPerimeter=0;strokeColor=default;align=center;verticalAlign=middle;fontFamily=Helvetica;fontSize=11;fontColor=default;labelBackgroundColor=default;endArrow=none;endFill=0;" edge="1" parent="1" source="8KkNLTuFki5gpUxNbEMF-37" target="8KkNLTuFki5gpUxNbEMF-137">
          <mxGeometry relative="1" as="geometry" />
        </mxCell>
        <mxCell id="8KkNLTuFki5gpUxNbEMF-143" style="edgeStyle=orthogonalEdgeStyle;shape=connector;rounded=0;orthogonalLoop=1;jettySize=auto;html=1;exitX=0.75;exitY=1;exitDx=0;exitDy=0;entryX=0.28;entryY=-0.014;entryDx=0;entryDy=0;entryPerimeter=0;strokeColor=default;align=center;verticalAlign=middle;fontFamily=Helvetica;fontSize=11;fontColor=default;labelBackgroundColor=default;endArrow=none;endFill=0;" edge="1" parent="1" source="8KkNLTuFki5gpUxNbEMF-37" target="8KkNLTuFki5gpUxNbEMF-138">
          <mxGeometry relative="1" as="geometry" />
        </mxCell>
        <mxCell id="8KkNLTuFki5gpUxNbEMF-145" value="id" style="ellipse;whiteSpace=wrap;html=1;fontFamily=Helvetica;fontSize=11;labelBackgroundColor=default;fillColor=#f0a30a;fontColor=#000000;strokeColor=#BD7000;" vertex="1" parent="1">
          <mxGeometry x="1050" y="400" width="80" height="50" as="geometry" />
        </mxCell>
        <mxCell id="8KkNLTuFki5gpUxNbEMF-146" value="date" style="ellipse;whiteSpace=wrap;html=1;fontFamily=Helvetica;fontSize=11;labelBackgroundColor=default;fillColor=#cce5ff;strokeColor=#36393d;" vertex="1" parent="1">
          <mxGeometry x="1180" y="310" width="80" height="50" as="geometry" />
        </mxCell>
        <mxCell id="8KkNLTuFki5gpUxNbEMF-147" value="query" style="ellipse;whiteSpace=wrap;html=1;fontFamily=Helvetica;fontSize=11;labelBackgroundColor=default;fillColor=#cce5ff;strokeColor=#36393d;" vertex="1" parent="1">
          <mxGeometry x="1150" y="380" width="80" height="50" as="geometry" />
        </mxCell>
        <mxCell id="8KkNLTuFki5gpUxNbEMF-152" style="edgeStyle=orthogonalEdgeStyle;shape=connector;rounded=0;orthogonalLoop=1;jettySize=auto;html=1;entryX=0.034;entryY=0.608;entryDx=0;entryDy=0;entryPerimeter=0;strokeColor=default;align=center;verticalAlign=middle;fontFamily=Helvetica;fontSize=11;fontColor=default;labelBackgroundColor=default;endArrow=none;endFill=0;" edge="1" parent="1" source="8KkNLTuFki5gpUxNbEMF-71" target="8KkNLTuFki5gpUxNbEMF-146">
          <mxGeometry relative="1" as="geometry" />
        </mxCell>
        <mxCell id="8KkNLTuFki5gpUxNbEMF-153" value="name" style="ellipse;whiteSpace=wrap;html=1;fontFamily=Helvetica;fontSize=11;labelBackgroundColor=default;fillColor=#cce5ff;strokeColor=#36393d;" vertex="1" parent="1">
          <mxGeometry x="1220" y="160" width="80" height="50" as="geometry" />
        </mxCell>
        <mxCell id="8KkNLTuFki5gpUxNbEMF-154" value="id" style="ellipse;whiteSpace=wrap;html=1;fontFamily=Helvetica;fontSize=11;labelBackgroundColor=default;fillColor=#f0a30a;fontColor=#000000;strokeColor=#BD7000;" vertex="1" parent="1">
          <mxGeometry x="1220" y="240" width="80" height="50" as="geometry" />
        </mxCell>
        <mxCell id="8KkNLTuFki5gpUxNbEMF-157" value="id" style="ellipse;whiteSpace=wrap;html=1;fontFamily=Helvetica;fontSize=11;labelBackgroundColor=default;fillColor=#f0a30a;fontColor=#000000;strokeColor=#BD7000;" vertex="1" parent="1">
          <mxGeometry x="970" y="-160" width="80" height="50" as="geometry" />
        </mxCell>
        <mxCell id="8KkNLTuFki5gpUxNbEMF-158" value="new_status" style="ellipse;whiteSpace=wrap;html=1;fontFamily=Helvetica;fontSize=11;labelBackgroundColor=default;fillColor=#cce5ff;strokeColor=#36393d;" vertex="1" parent="1">
          <mxGeometry x="1150" y="-170" width="80" height="50" as="geometry" />
        </mxCell>
        <mxCell id="8KkNLTuFki5gpUxNbEMF-159" value="date" style="ellipse;whiteSpace=wrap;html=1;fontFamily=Helvetica;fontSize=11;labelBackgroundColor=default;fillColor=#cce5ff;strokeColor=#36393d;" vertex="1" parent="1">
          <mxGeometry x="1230" y="-150" width="80" height="50" as="geometry" />
        </mxCell>
        <mxCell id="8KkNLTuFki5gpUxNbEMF-162" value="task_id" style="ellipse;shape=doubleEllipse;whiteSpace=wrap;html=1;fontFamily=Helvetica;fontSize=11;labelBackgroundColor=default;fillColor=#cce5ff;strokeColor=#36393d;" vertex="1" parent="1">
          <mxGeometry x="1060" y="-170" width="80" height="50" as="geometry" />
        </mxCell>
        <mxCell id="8KkNLTuFki5gpUxNbEMF-163" style="edgeStyle=orthogonalEdgeStyle;shape=connector;rounded=0;orthogonalLoop=1;jettySize=auto;html=1;exitX=0;exitY=0;exitDx=0;exitDy=0;entryX=0.969;entryY=0.767;entryDx=0;entryDy=0;entryPerimeter=0;strokeColor=default;align=center;verticalAlign=middle;fontFamily=Helvetica;fontSize=11;fontColor=default;labelBackgroundColor=default;endArrow=none;endFill=0;" edge="1" parent="1" source="8KkNLTuFki5gpUxNbEMF-53" target="8KkNLTuFki5gpUxNbEMF-157">
          <mxGeometry relative="1" as="geometry" />
        </mxCell>
        <mxCell id="8KkNLTuFki5gpUxNbEMF-164" style="edgeStyle=orthogonalEdgeStyle;shape=connector;rounded=0;orthogonalLoop=1;jettySize=auto;html=1;exitX=0.25;exitY=0;exitDx=0;exitDy=0;entryX=0.431;entryY=1.008;entryDx=0;entryDy=0;entryPerimeter=0;strokeColor=default;align=center;verticalAlign=middle;fontFamily=Helvetica;fontSize=11;fontColor=default;labelBackgroundColor=default;endArrow=none;endFill=0;" edge="1" parent="1" source="8KkNLTuFki5gpUxNbEMF-53" target="8KkNLTuFki5gpUxNbEMF-162">
          <mxGeometry relative="1" as="geometry" />
        </mxCell>
        <mxCell id="8KkNLTuFki5gpUxNbEMF-165" style="edgeStyle=orthogonalEdgeStyle;shape=connector;rounded=0;orthogonalLoop=1;jettySize=auto;html=1;exitX=0.75;exitY=0;exitDx=0;exitDy=0;entryX=0.314;entryY=0.939;entryDx=0;entryDy=0;entryPerimeter=0;strokeColor=default;align=center;verticalAlign=middle;fontFamily=Helvetica;fontSize=11;fontColor=default;labelBackgroundColor=default;endArrow=none;endFill=0;" edge="1" parent="1" source="8KkNLTuFki5gpUxNbEMF-53" target="8KkNLTuFki5gpUxNbEMF-158">
          <mxGeometry relative="1" as="geometry" />
        </mxCell>
        <mxCell id="8KkNLTuFki5gpUxNbEMF-166" style="edgeStyle=orthogonalEdgeStyle;shape=connector;rounded=0;orthogonalLoop=1;jettySize=auto;html=1;exitX=1;exitY=0;exitDx=0;exitDy=0;entryX=-0.013;entryY=0.684;entryDx=0;entryDy=0;entryPerimeter=0;strokeColor=default;align=center;verticalAlign=middle;fontFamily=Helvetica;fontSize=11;fontColor=default;labelBackgroundColor=default;endArrow=none;endFill=0;" edge="1" parent="1" source="8KkNLTuFki5gpUxNbEMF-53" target="8KkNLTuFki5gpUxNbEMF-159">
          <mxGeometry relative="1" as="geometry">
            <Array as="points">
              <mxPoint x="1180" y="-100" />
              <mxPoint x="1230" y="-100" />
              <mxPoint x="1230" y="-116" />
            </Array>
          </mxGeometry>
        </mxCell>
        <mxCell id="8KkNLTuFki5gpUxNbEMF-167" style="edgeStyle=orthogonalEdgeStyle;shape=connector;rounded=0;orthogonalLoop=1;jettySize=auto;html=1;exitX=1;exitY=0;exitDx=0;exitDy=0;entryX=0.043;entryY=0.696;entryDx=0;entryDy=0;entryPerimeter=0;strokeColor=default;align=center;verticalAlign=middle;fontFamily=Helvetica;fontSize=11;fontColor=default;labelBackgroundColor=default;endArrow=none;endFill=0;" edge="1" parent="1" source="8KkNLTuFki5gpUxNbEMF-59" target="8KkNLTuFki5gpUxNbEMF-153">
          <mxGeometry relative="1" as="geometry" />
        </mxCell>
        <mxCell id="8KkNLTuFki5gpUxNbEMF-168" value="id" style="ellipse;whiteSpace=wrap;html=1;fontFamily=Helvetica;fontSize=11;labelBackgroundColor=default;fillColor=#f0a30a;fontColor=#000000;strokeColor=#BD7000;" vertex="1" parent="1">
          <mxGeometry x="590" y="230" width="80" height="50" as="geometry" />
        </mxCell>
        <mxCell id="8KkNLTuFki5gpUxNbEMF-181" style="edgeStyle=orthogonalEdgeStyle;shape=connector;rounded=0;orthogonalLoop=1;jettySize=auto;html=1;exitX=1;exitY=0.5;exitDx=0;exitDy=0;entryX=0;entryY=0.25;entryDx=0;entryDy=0;strokeColor=default;align=center;verticalAlign=middle;fontFamily=Helvetica;fontSize=11;fontColor=default;labelBackgroundColor=default;endArrow=none;endFill=0;" edge="1" parent="1" source="8KkNLTuFki5gpUxNbEMF-169" target="8KkNLTuFki5gpUxNbEMF-29">
          <mxGeometry relative="1" as="geometry">
            <Array as="points">
              <mxPoint x="678" y="195" />
              <mxPoint x="678" y="270" />
              <mxPoint x="707" y="270" />
            </Array>
          </mxGeometry>
        </mxCell>
        <mxCell id="8KkNLTuFki5gpUxNbEMF-169" value="proyect_id" style="ellipse;shape=doubleEllipse;whiteSpace=wrap;html=1;fontFamily=Helvetica;fontSize=11;labelBackgroundColor=default;fillColor=#cce5ff;strokeColor=#36393d;" vertex="1" parent="1">
          <mxGeometry x="570" y="170" width="80" height="50" as="geometry" />
        </mxCell>
        <mxCell id="8KkNLTuFki5gpUxNbEMF-170" value="description&lt;span style=&quot;color: rgba(0, 0, 0, 0); font-family: monospace; font-size: 0px; text-align: start; text-wrap-mode: nowrap; background-color: rgb(251, 251, 251);&quot;&gt;%3CmxGraphModel%3E%3Croot%3E%3CmxCell%20id%3D%220%22%2F%3E%3CmxCell%20id%3D%221%22%20parent%3D%220%22%2F%3E%3CmxCell%20id%3D%222%22%20value%3D%22date%22%20style%3D%22ellipse%3BwhiteSpace%3Dwrap%3Bhtml%3D1%3BfontFamily%3DHelvetica%3BfontSize%3D11%3BlabelBackgroundColor%3Ddefault%3B%22%20vertex%3D%221%22%20parent%3D%221%22%3E%3CmxGeometry%20x%3D%221230%22%20y%3D%22-150%22%20width%3D%2280%22%20height%3D%2250%22%20as%3D%22geometry%22%2F%3E%3C%2FmxCell%3E%3C%2Froot%3E%3C%2FmxGraphModel%3E&lt;/span&gt;&lt;span style=&quot;color: rgba(0, 0, 0, 0); font-family: monospace; font-size: 0px; text-align: start; text-wrap-mode: nowrap; background-color: rgb(251, 251, 251);&quot;&gt;%3CmxGraphModel%3E%3Croot%3E%3CmxCell%20id%3D%220%22%2F%3E%3CmxCell%20id%3D%221%22%20parent%3D%220%22%2F%3E%3CmxCell%20id%3D%222%22%20value%3D%22date%22%20style%3D%22ellipse%3BwhiteSpace%3Dwrap%3Bhtml%3D1%3BfontFamily%3DHelvetica%3BfontSize%3D11%3BlabelBackgroundColor%3Ddefault%3B%22%20vertex%3D%221%22%20parent%3D%221%22%3E%3CmxGeometry%20x%3D%221230%22%20y%3D%22-150%22%20width%3D%2280%22%20height%3D%2250%22%20as%3D%22geometry%22%2F%3E%3C%2FmxCell%3E%3C%2Froot%3E%3C%2FmxGraphModel%3E&lt;/span&gt;&lt;span style=&quot;color: rgba(0, 0, 0, 0); font-family: monospace; font-size: 0px; text-align: start; text-wrap-mode: nowrap; background-color: rgb(251, 251, 251);&quot;&gt;%3CmxGraphModel%3E%3Croot%3E%3CmxCell%20id%3D%220%22%2F%3E%3CmxCell%20id%3D%221%22%20parent%3D%220%22%2F%3E%3CmxCell%20id%3D%222%22%20value%3D%22date%22%20style%3D%22ellipse%3BwhiteSpace%3Dwrap%3Bhtml%3D1%3BfontFamily%3DHelvetica%3BfontSize%3D11%3BlabelBackgroundColor%3Ddefault%3B%22%20vertex%3D%221%22%20parent%3D%221%22%3E%3CmxGeometry%20x%3D%221230%22%20y%3D%22-150%22%20width%3D%2280%22%20height%3D%2250%22%20as%3D%22geometry%22%2F%3E%3C%2FmxCell%3E%3C%2Froot%3E%3C%2FmxGraphModel%3E&lt;/span&gt;" style="ellipse;whiteSpace=wrap;html=1;fontFamily=Helvetica;fontSize=11;labelBackgroundColor=default;fillColor=#cce5ff;strokeColor=#36393d;" vertex="1" parent="1">
          <mxGeometry x="620" y="60" width="80" height="50" as="geometry" />
        </mxCell>
        <mxCell id="8KkNLTuFki5gpUxNbEMF-184" style="edgeStyle=orthogonalEdgeStyle;shape=connector;rounded=0;orthogonalLoop=1;jettySize=auto;html=1;exitX=0;exitY=0.5;exitDx=0;exitDy=0;strokeColor=default;align=center;verticalAlign=middle;fontFamily=Helvetica;fontSize=11;fontColor=default;labelBackgroundColor=default;endArrow=none;endFill=0;entryX=1;entryY=0;entryDx=0;entryDy=0;" edge="1" parent="1" source="8KkNLTuFki5gpUxNbEMF-171" target="8KkNLTuFki5gpUxNbEMF-29">
          <mxGeometry relative="1" as="geometry">
            <mxPoint x="830" y="240" as="targetPoint" />
            <Array as="points">
              <mxPoint x="930" y="140" />
              <mxPoint x="870" y="140" />
              <mxPoint x="870" y="220" />
              <mxPoint x="827" y="220" />
            </Array>
          </mxGeometry>
        </mxCell>
        <mxCell id="8KkNLTuFki5gpUxNbEMF-171" value="date" style="ellipse;whiteSpace=wrap;html=1;fontFamily=Helvetica;fontSize=11;labelBackgroundColor=default;fillColor=#cce5ff;strokeColor=#36393d;" vertex="1" parent="1">
          <mxGeometry x="930" y="70" width="80" height="50" as="geometry" />
        </mxCell>
        <mxCell id="8KkNLTuFki5gpUxNbEMF-185" style="edgeStyle=orthogonalEdgeStyle;shape=connector;rounded=0;orthogonalLoop=1;jettySize=auto;html=1;exitX=0.5;exitY=1;exitDx=0;exitDy=0;strokeColor=default;align=center;verticalAlign=middle;fontFamily=Helvetica;fontSize=11;fontColor=default;labelBackgroundColor=default;endArrow=none;endFill=0;entryX=0.898;entryY=-0.043;entryDx=0;entryDy=0;entryPerimeter=0;" edge="1" parent="1" source="8KkNLTuFki5gpUxNbEMF-172" target="8KkNLTuFki5gpUxNbEMF-29">
          <mxGeometry relative="1" as="geometry">
            <mxPoint x="860" y="170" as="targetPoint" />
            <Array as="points">
              <mxPoint x="870" y="90" />
              <mxPoint x="870" y="220" />
              <mxPoint x="820" y="220" />
              <mxPoint x="820" y="257" />
            </Array>
          </mxGeometry>
        </mxCell>
        <mxCell id="8KkNLTuFki5gpUxNbEMF-172" value="time" style="ellipse;whiteSpace=wrap;html=1;fontFamily=Helvetica;fontSize=11;labelBackgroundColor=default;fillColor=#cce5ff;strokeColor=#36393d;" vertex="1" parent="1">
          <mxGeometry x="850" y="40" width="80" height="50" as="geometry" />
        </mxCell>
        <mxCell id="8KkNLTuFki5gpUxNbEMF-173" value="priority" style="ellipse;whiteSpace=wrap;html=1;fontFamily=Helvetica;fontSize=11;labelBackgroundColor=default;fillColor=#cce5ff;strokeColor=#36393d;" vertex="1" parent="1">
          <mxGeometry x="600" y="300" width="80" height="50" as="geometry" />
        </mxCell>
        <mxCell id="8KkNLTuFki5gpUxNbEMF-174" value="tag&lt;span style=&quot;color: rgba(0, 0, 0, 0); font-family: monospace; font-size: 0px; text-align: start; text-wrap-mode: nowrap; background-color: rgb(251, 251, 251);&quot;&gt;%3CmxGraphModel%3E%3Croot%3E%3CmxCell%20id%3D%220%22%2F%3E%3CmxCell%20id%3D%221%22%20parent%3D%220%22%2F%3E%3CmxCell%20id%3D%222%22%20value%3D%22priority%22%20style%3D%22ellipse%3BwhiteSpace%3Dwrap%3Bhtml%3D1%3BfontFamily%3DHelvetica%3BfontSize%3D11%3BlabelBackgroundColor%3Ddefault%3B%22%20vertex%3D%221%22%20parent%3D%221%22%3E%3CmxGeometry%20x%3D%22600%22%20y%3D%22300%22%20width%3D%2280%22%20height%3D%2250%22%20as%3D%22geometry%22%2F%3E%3C%2FmxCell%3E%3C%2Froot%3E%3C%2FmxGraphModel%3E&lt;/span&gt;" style="ellipse;whiteSpace=wrap;html=1;fontFamily=Helvetica;fontSize=11;labelBackgroundColor=default;fillColor=#cce5ff;strokeColor=#36393d;" vertex="1" parent="1">
          <mxGeometry x="780" y="330" width="80" height="50" as="geometry" />
        </mxCell>
        <mxCell id="8KkNLTuFki5gpUxNbEMF-175" value="title" style="ellipse;whiteSpace=wrap;html=1;fontFamily=Helvetica;fontSize=11;labelBackgroundColor=default;fillColor=#cce5ff;strokeColor=#36393d;" vertex="1" parent="1">
          <mxGeometry x="660" y="340" width="80" height="50" as="geometry" />
        </mxCell>
        <mxCell id="8KkNLTuFki5gpUxNbEMF-176" value="type" style="ellipse;whiteSpace=wrap;html=1;fontFamily=Helvetica;fontSize=11;labelBackgroundColor=default;" vertex="1" parent="1">
          <mxGeometry x="850" y="300" width="80" height="50" as="geometry" />
        </mxCell>
        <mxCell id="8KkNLTuFki5gpUxNbEMF-180" style="edgeStyle=orthogonalEdgeStyle;shape=connector;rounded=0;orthogonalLoop=1;jettySize=auto;html=1;exitX=1;exitY=1;exitDx=0;exitDy=0;strokeColor=default;align=center;verticalAlign=middle;fontFamily=Helvetica;fontSize=11;fontColor=default;labelBackgroundColor=default;endArrow=none;endFill=0;entryX=0;entryY=0;entryDx=0;entryDy=0;" edge="1" parent="1" source="8KkNLTuFki5gpUxNbEMF-177" target="8KkNLTuFki5gpUxNbEMF-29">
          <mxGeometry relative="1" as="geometry">
            <mxPoint x="710" y="250" as="targetPoint" />
            <Array as="points">
              <mxPoint x="680" y="152" />
              <mxPoint x="680" y="270" />
              <mxPoint x="707" y="270" />
            </Array>
          </mxGeometry>
        </mxCell>
        <mxCell id="8KkNLTuFki5gpUxNbEMF-177" value="status" style="ellipse;shape=doubleEllipse;whiteSpace=wrap;html=1;fontFamily=Helvetica;fontSize=11;fontColor=default;labelBackgroundColor=default;" vertex="1" parent="1">
          <mxGeometry x="590" y="110" width="80" height="50" as="geometry" />
        </mxCell>
        <mxCell id="8KkNLTuFki5gpUxNbEMF-183" style="edgeStyle=orthogonalEdgeStyle;shape=connector;rounded=0;orthogonalLoop=1;jettySize=auto;html=1;entryX=1;entryY=0.25;entryDx=0;entryDy=0;strokeColor=default;align=center;verticalAlign=middle;fontFamily=Helvetica;fontSize=11;fontColor=default;labelBackgroundColor=default;endArrow=none;endFill=0;" edge="1" parent="1" source="8KkNLTuFki5gpUxNbEMF-178" target="8KkNLTuFki5gpUxNbEMF-29">
          <mxGeometry relative="1" as="geometry">
            <Array as="points">
              <mxPoint x="870" y="155" />
              <mxPoint x="870" y="220" />
              <mxPoint x="827" y="220" />
            </Array>
          </mxGeometry>
        </mxCell>
        <mxCell id="8KkNLTuFki5gpUxNbEMF-178" value="user_id" style="ellipse;shape=doubleEllipse;whiteSpace=wrap;html=1;fontFamily=Helvetica;fontSize=11;labelBackgroundColor=default;fillColor=#cce5ff;strokeColor=#36393d;" vertex="1" parent="1">
          <mxGeometry x="940" y="130" width="80" height="50" as="geometry" />
        </mxCell>
        <mxCell id="8KkNLTuFki5gpUxNbEMF-179" style="edgeStyle=orthogonalEdgeStyle;shape=connector;rounded=0;orthogonalLoop=1;jettySize=auto;html=1;exitX=0.77;exitY=0.913;exitDx=0;exitDy=0;strokeColor=default;align=center;verticalAlign=middle;fontFamily=Helvetica;fontSize=11;fontColor=default;labelBackgroundColor=default;endArrow=none;endFill=0;exitPerimeter=0;" edge="1" parent="1" source="8KkNLTuFki5gpUxNbEMF-170">
          <mxGeometry relative="1" as="geometry">
            <mxPoint x="688.2842712474658" y="109.99766952966576" as="sourcePoint" />
            <mxPoint x="710" y="270" as="targetPoint" />
            <Array as="points">
              <mxPoint x="682" y="109" />
              <mxPoint x="680" y="109" />
              <mxPoint x="680" y="270" />
              <mxPoint x="710" y="270" />
            </Array>
          </mxGeometry>
        </mxCell>
        <mxCell id="8KkNLTuFki5gpUxNbEMF-182" style="edgeStyle=orthogonalEdgeStyle;shape=connector;rounded=0;orthogonalLoop=1;jettySize=auto;html=1;exitX=1;exitY=0.5;exitDx=0;exitDy=0;entryX=0.007;entryY=0.145;entryDx=0;entryDy=0;entryPerimeter=0;strokeColor=default;align=center;verticalAlign=middle;fontFamily=Helvetica;fontSize=11;fontColor=default;labelBackgroundColor=default;endArrow=none;endFill=0;" edge="1" parent="1" source="8KkNLTuFki5gpUxNbEMF-168" target="8KkNLTuFki5gpUxNbEMF-29">
          <mxGeometry relative="1" as="geometry">
            <Array as="points">
              <mxPoint x="680" y="255" />
              <mxPoint x="680" y="269" />
            </Array>
          </mxGeometry>
        </mxCell>
        <mxCell id="8KkNLTuFki5gpUxNbEMF-186" style="edgeStyle=orthogonalEdgeStyle;shape=connector;rounded=0;orthogonalLoop=1;jettySize=auto;html=1;exitX=0.75;exitY=1;exitDx=0;exitDy=0;entryX=0.301;entryY=0.053;entryDx=0;entryDy=0;entryPerimeter=0;strokeColor=default;align=center;verticalAlign=middle;fontFamily=Helvetica;fontSize=11;fontColor=default;labelBackgroundColor=default;endArrow=none;endFill=0;" edge="1" parent="1" source="8KkNLTuFki5gpUxNbEMF-29" target="8KkNLTuFki5gpUxNbEMF-174">
          <mxGeometry relative="1" as="geometry" />
        </mxCell>
        <mxCell id="8KkNLTuFki5gpUxNbEMF-188" style="edgeStyle=orthogonalEdgeStyle;shape=connector;rounded=0;orthogonalLoop=1;jettySize=auto;html=1;exitX=0.25;exitY=1;exitDx=0;exitDy=0;entryX=0.63;entryY=0.023;entryDx=0;entryDy=0;entryPerimeter=0;strokeColor=default;align=center;verticalAlign=middle;fontFamily=Helvetica;fontSize=11;fontColor=default;labelBackgroundColor=default;endArrow=none;endFill=0;" edge="1" parent="1" source="8KkNLTuFki5gpUxNbEMF-29" target="8KkNLTuFki5gpUxNbEMF-175">
          <mxGeometry relative="1" as="geometry" />
        </mxCell>
        <mxCell id="8KkNLTuFki5gpUxNbEMF-189" style="edgeStyle=orthogonalEdgeStyle;shape=connector;rounded=0;orthogonalLoop=1;jettySize=auto;html=1;exitX=0;exitY=0.75;exitDx=0;exitDy=0;entryX=0.923;entryY=0.244;entryDx=0;entryDy=0;entryPerimeter=0;strokeColor=default;align=center;verticalAlign=middle;fontFamily=Helvetica;fontSize=11;fontColor=default;labelBackgroundColor=default;endArrow=none;endFill=0;" edge="1" parent="1" source="8KkNLTuFki5gpUxNbEMF-29" target="8KkNLTuFki5gpUxNbEMF-173">
          <mxGeometry relative="1" as="geometry" />
        </mxCell>
        <mxCell id="8KkNLTuFki5gpUxNbEMF-190" value="id" style="ellipse;whiteSpace=wrap;html=1;fontFamily=Helvetica;fontSize=11;labelBackgroundColor=default;fillColor=#f0a30a;fontColor=#000000;strokeColor=#BD7000;" vertex="1" parent="1">
          <mxGeometry x="320" y="-100" width="80" height="50" as="geometry" />
        </mxCell>
        <mxCell id="8KkNLTuFki5gpUxNbEMF-191" value="task_id" style="ellipse;shape=doubleEllipse;whiteSpace=wrap;html=1;fontFamily=Helvetica;fontSize=11;labelBackgroundColor=default;fillColor=#cce5ff;strokeColor=#36393d;" vertex="1" parent="1">
          <mxGeometry x="320" y="-40" width="80" height="50" as="geometry" />
        </mxCell>
        <mxCell id="8KkNLTuFki5gpUxNbEMF-192" value="user_id" style="ellipse;shape=doubleEllipse;whiteSpace=wrap;html=1;fontFamily=Helvetica;fontSize=11;labelBackgroundColor=default;fillColor=#cce5ff;strokeColor=#36393d;" vertex="1" parent="1">
          <mxGeometry x="330" y="20" width="80" height="50" as="geometry" />
        </mxCell>
        <mxCell id="8KkNLTuFki5gpUxNbEMF-193" value="comment" style="ellipse;whiteSpace=wrap;html=1;fontFamily=Helvetica;fontSize=11;labelBackgroundColor=default;fillColor=#cce5ff;strokeColor=#36393d;" vertex="1" parent="1">
          <mxGeometry x="370" y="70" width="80" height="50" as="geometry" />
        </mxCell>
        <mxCell id="8KkNLTuFki5gpUxNbEMF-194" value="date" style="ellipse;whiteSpace=wrap;html=1;fontFamily=Helvetica;fontSize=11;labelBackgroundColor=default;fillColor=#cce5ff;strokeColor=#36393d;" vertex="1" parent="1">
          <mxGeometry x="450" y="80" width="80" height="50" as="geometry" />
        </mxCell>
        <mxCell id="8KkNLTuFki5gpUxNbEMF-197" style="edgeStyle=orthogonalEdgeStyle;shape=connector;rounded=0;orthogonalLoop=1;jettySize=auto;html=1;exitX=0;exitY=1;exitDx=0;exitDy=0;entryX=0.998;entryY=0.41;entryDx=0;entryDy=0;entryPerimeter=0;strokeColor=default;align=center;verticalAlign=middle;fontFamily=Helvetica;fontSize=11;fontColor=default;labelBackgroundColor=default;endArrow=none;endFill=0;" edge="1" parent="1" source="8KkNLTuFki5gpUxNbEMF-45" target="8KkNLTuFki5gpUxNbEMF-192">
          <mxGeometry relative="1" as="geometry">
            <Array as="points">
              <mxPoint x="460" y="-20" />
              <mxPoint x="460" y="40" />
            </Array>
          </mxGeometry>
        </mxCell>
        <mxCell id="8KkNLTuFki5gpUxNbEMF-199" value="name" style="ellipse;whiteSpace=wrap;html=1;fontFamily=Helvetica;fontSize=11;labelBackgroundColor=default;fillColor=#cce5ff;strokeColor=#36393d;" vertex="1" parent="1">
          <mxGeometry x="10" y="-180" width="80" height="50" as="geometry" />
        </mxCell>
        <mxCell id="8KkNLTuFki5gpUxNbEMF-200" value="id" style="ellipse;whiteSpace=wrap;html=1;fontFamily=Helvetica;fontSize=11;labelBackgroundColor=default;fillColor=#f0a30a;fontColor=#000000;strokeColor=#BD7000;" vertex="1" parent="1">
          <mxGeometry x="10" y="-100" width="80" height="50" as="geometry" />
        </mxCell>
        <mxCell id="8KkNLTuFki5gpUxNbEMF-201" style="edgeStyle=orthogonalEdgeStyle;shape=connector;rounded=0;orthogonalLoop=1;jettySize=auto;html=1;exitX=0;exitY=0;exitDx=0;exitDy=0;entryX=1.004;entryY=0.681;entryDx=0;entryDy=0;entryPerimeter=0;strokeColor=default;align=center;verticalAlign=middle;fontFamily=Helvetica;fontSize=11;fontColor=default;labelBackgroundColor=default;endArrow=none;endFill=0;" edge="1" parent="1" source="8KkNLTuFki5gpUxNbEMF-61" target="8KkNLTuFki5gpUxNbEMF-199">
          <mxGeometry relative="1" as="geometry" />
        </mxCell>
        <mxCell id="8KkNLTuFki5gpUxNbEMF-202" style="edgeStyle=orthogonalEdgeStyle;shape=connector;rounded=0;orthogonalLoop=1;jettySize=auto;html=1;exitX=0;exitY=1;exitDx=0;exitDy=0;entryX=1;entryY=0.4;entryDx=0;entryDy=0;entryPerimeter=0;strokeColor=default;align=center;verticalAlign=middle;fontFamily=Helvetica;fontSize=11;fontColor=default;labelBackgroundColor=default;endArrow=none;endFill=0;" edge="1" parent="1" source="8KkNLTuFki5gpUxNbEMF-61" target="8KkNLTuFki5gpUxNbEMF-200">
          <mxGeometry relative="1" as="geometry" />
        </mxCell>
        <mxCell id="8KkNLTuFki5gpUxNbEMF-203" value="token" style="ellipse;whiteSpace=wrap;html=1;fontFamily=Helvetica;fontSize=11;labelBackgroundColor=default;fillColor=#cce5ff;strokeColor=#36393d;" vertex="1" parent="1">
          <mxGeometry x="-80" y="440" width="80" height="50" as="geometry" />
        </mxCell>
        <mxCell id="8KkNLTuFki5gpUxNbEMF-204" value="id" style="ellipse;whiteSpace=wrap;html=1;fontFamily=Helvetica;fontSize=11;labelBackgroundColor=default;fillColor=#f0a30a;strokeColor=#BD7000;fontColor=#000000;" vertex="1" parent="1">
          <mxGeometry x="-130" y="500" width="80" height="50" as="geometry" />
        </mxCell>
        <mxCell id="8KkNLTuFki5gpUxNbEMF-205" value="user_id" style="ellipse;shape=doubleEllipse;whiteSpace=wrap;html=1;fontFamily=Helvetica;fontSize=11;labelBackgroundColor=default;fillColor=#cce5ff;strokeColor=#36393d;" vertex="1" parent="1">
          <mxGeometry x="-80" y="560" width="80" height="50" as="geometry" />
        </mxCell>
        <mxCell id="8KkNLTuFki5gpUxNbEMF-206" value="expirate_date" style="ellipse;whiteSpace=wrap;html=1;fontFamily=Helvetica;fontSize=11;labelBackgroundColor=default;fillColor=#cce5ff;strokeColor=#36393d;" vertex="1" parent="1">
          <mxGeometry x="10" y="440" width="80" height="50" as="geometry" />
        </mxCell>
        <mxCell id="8KkNLTuFki5gpUxNbEMF-210" style="edgeStyle=orthogonalEdgeStyle;shape=connector;rounded=0;orthogonalLoop=1;jettySize=auto;html=1;exitX=0.5;exitY=0;exitDx=0;exitDy=0;entryX=0.577;entryY=1.054;entryDx=0;entryDy=0;entryPerimeter=0;strokeColor=default;align=center;verticalAlign=middle;fontFamily=Helvetica;fontSize=11;fontColor=default;labelBackgroundColor=default;endArrow=none;endFill=0;" edge="1" parent="1" source="8KkNLTuFki5gpUxNbEMF-3" target="8KkNLTuFki5gpUxNbEMF-206">
          <mxGeometry relative="1" as="geometry" />
        </mxCell>
      </root>
    </mxGraphModel>
  </diagram>
</mxfile>
